#N canvas 194 679 1337 422 10;
#X obj 140 91 bng 15 250 50 0 empty empty empty 17 7 0 10 -262144 -1
-1;
#X msg 43 71 print test;
#X obj 144 227 print @;
#X msg 186 64 load etc/lua.lua;
#X msg 233 95 rank 1;
#X msg 233 134 eval print (404);
#X msg 132 26 eval function dump(a) print(a) end print(202) function
bang() print(99) end;
#X msg 413 133 eval function number(a) return a*a*a end;
#X floatatom 36 122 5 0 0 0 - - -;
#X floatatom 40 200 5 0 0 0 - - -;
#X obj 109 148 luavm m5;
#X obj 672 193 luavm m5;
#X floatatom 766 136 5 0 0 0 - - -;
#X floatatom 768 252 5 0 0 0 - - -;
#X msg 386 82 math.log 10 20;
#X msg 495 32 eval value=10;
#X msg 675 78 eval print(value);
#X obj 856 186 luavm;
#X floatatom 898 92 5 0 0 0 - - -;
#X floatatom 941 264 5 0 0 0 - - -;
#X msg 888 129 eval function number(a) return a*a*a end;
#X msg 520 62 get value;
#X msg 1006 35 eval local a=0 function count(inc) a=a+(inc or 1) return
a end function number(inc) return count(inc) end;
#X msg 979 93 count;
#X msg 1077 92 eval print ( 5 );
#X connect 0 0 10 0;
#X connect 1 0 10 0;
#X connect 3 0 10 0;
#X connect 4 0 10 0;
#X connect 5 0 10 0;
#X connect 6 0 10 0;
#X connect 7 0 10 0;
#X connect 8 0 10 0;
#X connect 10 0 2 0;
#X connect 10 0 9 0;
#X connect 11 0 13 0;
#X connect 12 0 11 0;
#X connect 14 0 10 0;
#X connect 15 0 10 0;
#X connect 16 0 11 0;
#X connect 17 0 19 0;
#X connect 18 0 17 0;
#X connect 20 0 17 0;
#X connect 21 0 10 0;
#X connect 22 0 17 0;
#X connect 23 0 17 0;
#X connect 24 0 17 0;
