#N canvas 151 672 883 321 10;
#X obj 175 96 bng 15 250 50 0 empty empty empty 17 7 0 10 -262144 -1
-1;
#X obj 200 244 print @;
#X obj 168 157 pyobj etc/py.py;
#X msg 310 132 eval 10;
#X msg 418 151 exec print(10);
#X msg 391 120 eval math.log(10);
#X msg 227 92 exec import math;
#X msg 375 45 eval "1 2 3";
#X msg 425 92 eval [ 1 2 3 ];
#X obj 56 189 sum;
#X msg 24 108 1 2 3 4;
#X msg 240 55 exec pd.post(outlet);
#X msg 370 183 exec pd.post(outlet);
#X obj 287 254 print 2;
#X msg 228 20 exec pd.send(outlet[0] \, 1 \, 2);
#X floatatom 109 123 5 0 0 0 - - -;
#X obj 407 255 pyobj etc/py2.py;
#X obj 422 285 print @1;
#X obj 504 291 print [2;
#X msg 442 213 exec pd.post(inlet);
#X msg 604 204 func 1 2 3;
#X obj 749 179 v v;
#X msg 716 240;
#X obj 764 135 bng 15 250 50 0 empty empty empty 17 7 0 10 -262144
-1 -1;
#X obj 779 239 print v;
#X msg 108 46 get v;
#X msg 80 79 set v 10;
#X connect 0 0 2 0;
#X connect 2 0 1 0;
#X connect 2 1 13 0;
#X connect 3 0 2 0;
#X connect 4 0 2 0;
#X connect 5 0 2 0;
#X connect 6 0 2 0;
#X connect 7 0 2 0;
#X connect 8 0 2 0;
#X connect 9 0 1 0;
#X connect 10 0 9 0;
#X connect 11 0 2 0;
#X connect 12 0 16 0;
#X connect 14 0 2 0;
#X connect 15 0 2 0;
#X connect 16 0 17 0;
#X connect 16 1 18 0;
#X connect 19 0 16 0;
#X connect 21 0 24 0;
#X connect 23 0 21 0;
#X connect 25 0 2 0;
#X connect 26 0 2 0;
